<svg width="27" height="23" viewBox="0 0 27 23" fill="none" xmlns="http://www.w3.org/2000/svg">
<path d="M13.8416 1.71947C13.8181 1.68102 13.7858 1.64872 13.7474 1.62526C13.6138 1.54376 13.4395 1.58595 13.358 1.71947L1.657 20.8911C1.62987 20.9356 1.61552 20.9867 1.61553 21.0387C1.61553 21.1952 1.74236 21.322 1.89879 21.322H25.3008C25.3529 21.322 25.4039 21.3076 25.4484 21.2805C25.5819 21.199 25.6241 21.0247 25.5426 20.8912L13.8416 1.7195L13.8416 1.71947ZM15.0505 0.98162L26.7515 20.1533C27.2405 20.9545 26.9874 22.0004 26.1862 22.4894C25.9195 22.6521 25.6132 22.7382 25.3008 22.7382H1.89876C0.960141 22.7382 0.199219 21.9773 0.199219 21.0387C0.199225 20.7263 0.285326 20.42 0.448065 20.1533L12.1491 0.98162C12.6381 0.180423 13.684 -0.0726555 14.4852 0.416323C14.7159 0.557124 14.9097 0.750918 15.0505 0.98162ZM13.5998 18.716C14.2255 18.716 14.7328 18.2087 14.7328 17.583C14.7328 16.9572 14.2255 16.4499 13.5998 16.4499C12.974 16.4499 12.4667 16.9572 12.4667 17.583C12.4667 18.2087 12.974 18.716 13.5998 18.716ZM13.5998 6.53592C12.974 6.53592 12.4667 7.04319 12.4667 7.66895V13.9006C12.4667 14.5264 12.974 15.0336 13.5998 15.0336C14.2255 15.0336 14.7328 14.5264 14.7328 13.9006V7.66895C14.7328 7.04319 14.2255 6.53592 13.5998 6.53592Z" fill="#FF0000"/>
</svg>
